<?xml version="1.0" encoding="UTF-8"?>
<svg version="1.1" xmlns="http://www.w3.org/2000/svg" width="168" height="168">
<path d="M0 0 C55.44 0 110.88 0 168 0 C168 55.44 168 110.88 168 168 C112.56 168 57.12 168 0 168 C0 112.56 0 57.12 0 0 Z " fill="#FCFCFC" transform="translate(0,0)"/>
<path d="M0 0 C26.4 0 52.8 0 80 0 C80 16.17 80 32.34 80 49 C53.6 49 27.2 49 0 49 C0 32.83 0 16.66 0 0 Z " fill="#030303" transform="translate(37,103)"/>
<path d="M0 0 C20.79 0 41.58 0 63 0 C63 14.52 63 29.04 63 44 C42.21 44 21.42 44 0 44 C0 29.48 0 14.96 0 0 Z " fill="#040404" transform="translate(19,57)"/>
<path d="M0 0 C18.48 0 36.96 0 56 0 C56 10.56 56 21.12 56 32 C37.52 32 19.04 32 0 32 C0 21.44 0 10.88 0 0 Z " fill="#000000" transform="translate(85,57)"/>
<path d="M0 0 C12.54 0 25.08 0 38 0 C38 13.2 38 26.4 38 40 C25.46 40 12.92 40 0 40 C0 26.8 0 13.6 0 0 Z " fill="#000000" transform="translate(75,14)"/>
<path d="M0 0 C7.26 0 14.52 0 22 0 C22 16.17 22 32.34 22 49 C14.74 49 7.48 49 0 49 C0 32.83 0 16.66 0 0 Z " fill="#030303" transform="translate(120,103)"/>
<path d="M0 0 C14.85 0 29.7 0 45 0 C45 3.3 45 6.6 45 10 C30.15 10 15.3 10 0 10 C0 6.7 0 3.4 0 0 Z " fill="#010101" transform="translate(85,91)"/>
</svg>
